<svg xmlns="http://www.w3.org/2000/svg">
    <symbol id="logo">
        <path  fill="" d="M13.739 5.42c0 .039-.062.068-.185.088-.103.02-.164 0-.185-.059-.328-1.139-.883-1.983-1.663-2.533-.78-.55-1.807-.825-3.08-.825H7.7c-.616 0-1.068.128-1.355.383-.288.255-.431.648-.431 1.178v6.363h2.217c1.192 0 2.095-.197 2.711-.59.637-.412.955-.971.955-1.678 0-.04.062-.06.185-.06s.185.02.185.06l-.03 2.68c0 .629.01 1.1.03 1.414l.03 1.561c0 .059-.06.088-.184.088-.123 0-.185-.029-.185-.088 0-.785-.329-1.404-.986-1.856-.636-.47-1.55-.707-2.741-.707H5.915v6.304c0 .609.082 1.06.246 1.355.164.294.472.5.924.618.452.118 1.16.177 2.126.177.04 0 .061.059.061.177s-.02.177-.061.177c-.842 0-1.5-.01-1.972-.03l-3.142-.03-2.31.03c-.411.02-.976.03-1.695.03-.061 0-.092-.06-.092-.177 0-.118.03-.177.092-.177.72 0 1.243-.049 1.571-.147.329-.098.545-.285.647-.56.124-.294.185-.736.185-1.325V3.623c0-.59-.051-1.021-.154-1.296-.103-.275-.308-.462-.616-.56-.308-.118-.78-.176-1.417-.176-.062 0-.092-.06-.092-.177 0-.118.03-.177.092-.177h13.061c.206 0 .308.088.308.265l.062 3.918ZM42.565 8.454c.514 0 .77.304.77.913 0 .49-.143.972-.43 1.443a3.274 3.274 0 0 1-1.11 1.12 2.804 2.804 0 0 1-1.51.441c-.574 0-1.314-.206-2.217-.618-.37 2.69-1.315 4.742-2.834 6.156-1.5 1.394-3.368 2.091-5.607 2.091-1.396 0-2.649-.314-3.758-.943a7.099 7.099 0 0 1-2.557-2.562 6.741 6.741 0 0 1-.924-3.446A6.872 6.872 0 0 1 23.99 8.63a7.545 7.545 0 0 1 2.464-1.974c.945-.471 1.9-.707 2.865-.707 1.027 0 1.869.275 2.526.825 1.232-1.316 1.848-2.465 1.848-3.447 0-.373-.061-.657-.184-.854a2.03 2.03 0 0 0-.524-.589 2.89 2.89 0 0 1-.37-.412c-.082-.118-.123-.285-.123-.501 0-.295.093-.53.277-.707A.983.983 0 0 1 33.478 0c.452 0 .821.196 1.109.59.287.392.431.912.431 1.56 0 1.1-.431 2.22-1.294 3.358a19.294 19.294 0 0 1-3.111 3.21c-1.212.983-2.731 2.131-4.56 3.447l-1.786 1.325a6.616 6.616 0 0 0 1.263 2.828 6.872 6.872 0 0 0 2.28 1.885 6.493 6.493 0 0 0 2.834.648c1.869 0 3.42-.628 4.651-1.885 1.253-1.257 2.013-3.063 2.28-5.42l-.585-.294c-.863-.432-1.551-.746-2.064-.943-.514-.216-1.007-.324-1.479-.324-.288 0-.524.06-.709.177-.164.118-.246.265-.246.442 0 .236.082.51.247.825.164.353.246.608.246.765a.798.798 0 0 1-.185.501c-.123.138-.308.206-.554.206a.927.927 0 0 1-.617-.206c-.143-.157-.215-.402-.215-.736 0-.51.164-1.002.493-1.473.349-.471.79-.844 1.324-1.12a3.574 3.574 0 0 1 1.695-.441c.513 0 1.037.108 1.57.324.555.196 1.233.49 2.034.883.657.334 1.222.6 1.694.796.472.177.904.265 1.294.265.267 0 .483-.05.647-.147.185-.118.277-.256.277-.413 0-.176-.103-.402-.308-.677a2.794 2.794 0 0 1-.277-.413.878.878 0 0 1-.093-.412c0-.452.267-.677.801-.677Zm-18.298 2.061a10.138 10.138 0 0 0-.154 1.591c0 .216.02.52.062.913.554-.432 1.13-.864 1.725-1.296 1.869-1.374 3.327-2.513 4.374-3.417-.513-1.04-1.355-1.56-2.526-1.56-.8 0-1.52.362-2.156 1.089-.616.707-1.058 1.6-1.325 2.68ZM59.363 9.308c1.725.196 3.09.746 4.097 1.65 1.027.903 1.54 2.022 1.54 3.357a4.514 4.514 0 0 1-.924 2.769c-.616.825-1.468 1.483-2.557 1.973-1.088.472-2.3.707-3.635.707-.575 0-1.232-.03-1.971-.088-.288-.02-.647-.04-1.079-.059-.41-.02-.872-.03-1.386-.03l-2.248.03c-.411.02-.966.03-1.664.03-.062 0-.092-.06-.092-.177 0-.118.03-.177.092-.177.596 0 1.047-.049 1.355-.147.309-.118.524-.314.647-.59.144-.294.216-.726.216-1.295V3.623c0-.825-.144-1.365-.431-1.62-.288-.275-.873-.412-1.756-.412-.041 0-.062-.06-.062-.177 0-.118.02-.177.062-.177l1.633.03a57.1 57.1 0 0 0 2.248.058c.575 0 1.17-.029 1.787-.088.205-.02.513-.04.924-.059.41-.02.77-.03 1.078-.03 1.869 0 3.317.325 4.344.973 1.026.648 1.54 1.59 1.54 2.827 0 .943-.329 1.797-.986 2.563-.636.766-1.56 1.365-2.772 1.797Zm-2.588-7.511c-.595 0-1.006.137-1.232.412-.226.255-.339.746-.339 1.473v5.596l1.232.03c1.068 0 1.89-.383 2.465-1.149s.862-1.748.862-2.945c0-1.12-.256-1.964-.77-2.534-.513-.589-1.253-.883-2.218-.883Zm.585 17.231c2.69 0 4.036-1.335 4.036-4.006 0-1.512-.38-2.71-1.14-3.593-.76-.884-1.91-1.326-3.45-1.326-.596 0-1.13.02-1.602.059v7.099c0 .648.134 1.11.4 1.384.267.255.853.383 1.756.383Z"/>
    </symbol>
</svg>